<svg width="153" height="31" viewBox="0 0 153 31" fill="none" xmlns="http://www.w3.org/2000/svg">
<path d="M12.59 29.15C10.21 29.15 8.14 28.72 6.38 27.86C4.62 26.98 3.27 25.74 2.33 24.14C1.39 22.54 0.92 20.68 0.92 18.56C0.92 15.62 1.47 13.01 2.57 10.73C3.69 8.45 5.2 6.69 7.1 5.45C9 4.19 11.11 3.56 13.43 3.56C15.59 3.56 17.23 4.12 18.35 5.24C19.47 6.34 20.03 7.8 20.03 9.62C20.03 10.84 19.81 11.82 19.37 12.56C18.95 13.3 18.34 13.67 17.54 13.67C16.98 13.67 16.54 13.54 16.22 13.28C15.9 13.02 15.74 12.64 15.74 12.14C15.74 11.96 15.78 11.63 15.86 11.15C15.98 10.55 16.04 10.07 16.04 9.71C16.04 7.89 15.07 6.98 13.13 6.98C11.81 6.98 10.55 7.41 9.35 8.27C8.15 9.13 7.18 10.4 6.44 12.08C5.7 13.74 5.33 15.72 5.33 18.02C5.33 20.42 6 22.28 7.34 23.6C8.68 24.9 10.66 25.55 13.28 25.55C14.58 25.55 15.89 25.39 17.21 25.07C18.55 24.73 20.03 24.22 21.65 23.54C21.95 23.42 22.2 23.36 22.4 23.36C22.72 23.36 22.96 23.48 23.12 23.72C23.28 23.96 23.36 24.27 23.36 24.65C23.36 25.87 22.7 26.77 21.38 27.35C19.96 27.97 18.48 28.43 16.94 28.73C15.42 29.01 13.97 29.15 12.59 29.15ZM32.3764 22.31C32.6364 22.31 32.8364 22.43 32.9764 22.67C33.1364 22.91 33.2164 23.24 33.2164 23.66C33.2164 24.46 33.0264 25.08 32.6464 25.52C31.7864 26.58 30.8464 27.45 29.8264 28.13C28.8264 28.81 27.6864 29.15 26.4064 29.15C24.6464 29.15 23.3364 28.35 22.4764 26.75C21.6364 25.15 21.2164 23.08 21.2164 20.54C21.2164 18.1 21.5264 15.32 22.1464 12.2C22.7864 9.08 23.7164 6.4 24.9364 4.16C26.1764 1.92 27.6464 0.799998 29.3464 0.799998C30.3064 0.799998 31.0564 1.25 31.5964 2.15C32.1564 3.03 32.4364 4.3 32.4364 5.96C32.4364 8.34 31.7764 11.1 30.4564 14.24C29.1364 17.38 27.3464 20.49 25.0864 23.57C25.2264 24.39 25.4564 24.98 25.7764 25.34C26.0964 25.68 26.5164 25.85 27.0364 25.85C27.8564 25.85 28.5764 25.62 29.1964 25.16C29.8164 24.68 30.6064 23.87 31.5664 22.73C31.8064 22.45 32.0764 22.31 32.3764 22.31ZM28.6864 3.77C28.2264 3.77 27.7064 4.6 27.1264 6.26C26.5464 7.92 26.0364 9.98 25.5964 12.44C25.1564 14.9 24.9164 17.26 24.8764 19.52C26.2964 17.18 27.4264 14.84 28.2664 12.5C29.1064 10.14 29.5264 7.99 29.5264 6.05C29.5264 4.53 29.2464 3.77 28.6864 3.77ZM34.1886 29.15C32.9486 29.15 31.9586 28.7 31.2186 27.8C30.4786 26.9 30.1086 25.72 30.1086 24.26C30.1086 22.66 30.4786 21.15 31.2186 19.73C31.9586 18.29 32.9386 17.14 34.1586 16.28C35.3986 15.4 36.7086 14.96 38.0886 14.96C38.5286 14.96 38.8186 15.05 38.9586 15.23C39.1186 15.39 39.2486 15.69 39.3486 16.13C39.7686 16.05 40.2086 16.01 40.6686 16.01C41.6486 16.01 42.1386 16.36 42.1386 17.06C42.1386 17.48 41.9886 18.48 41.6886 20.06C41.2286 22.36 40.9986 23.96 40.9986 24.86C40.9986 25.16 41.0686 25.4 41.2086 25.58C41.3686 25.76 41.5686 25.85 41.8086 25.85C42.1886 25.85 42.6486 25.61 43.1886 25.13C43.7286 24.63 44.4586 23.83 45.3786 22.73C45.6186 22.45 45.8886 22.31 46.1886 22.31C46.4486 22.31 46.6486 22.43 46.7886 22.67C46.9486 22.91 47.0286 23.24 47.0286 23.66C47.0286 24.46 46.8386 25.08 46.4586 25.52C45.6386 26.54 44.7686 27.4 43.8486 28.1C42.9286 28.8 42.0386 29.15 41.1786 29.15C40.5186 29.15 39.9086 28.93 39.3486 28.49C38.8086 28.03 38.3986 27.41 38.1186 26.63C37.0786 28.31 35.7686 29.15 34.1886 29.15ZM35.2686 26.12C35.7086 26.12 36.1286 25.86 36.5286 25.34C36.9286 24.82 37.2186 24.13 37.3986 23.27L38.5086 17.75C37.6686 17.77 36.8886 18.09 36.1686 18.71C35.4686 19.31 34.9086 20.11 34.4886 21.11C34.0686 22.11 33.8586 23.17 33.8586 24.29C33.8586 24.91 33.9786 25.37 34.2186 25.67C34.4786 25.97 34.8286 26.12 35.2686 26.12ZM50.1704 29.81C49.1304 29.81 48.3304 29.57 47.7704 29.09C47.2304 28.61 46.9604 28.07 46.9604 27.47C46.9604 26.95 47.1504 26.5 47.5304 26.12C47.9104 25.74 48.4704 25.55 49.2104 25.55C49.4704 25.55 49.7704 25.58 50.1104 25.64C50.4704 25.68 50.7404 25.71 50.9204 25.73C50.9004 25.21 50.7804 24.72 50.5604 24.26C50.3604 23.8 50.1004 23.36 49.7804 22.94C49.4604 22.5 49.1604 22.12 48.8804 21.8C48.2604 22.98 47.6404 23.96 47.0204 24.74C46.4204 25.52 45.7604 26.26 45.0404 26.96C44.6804 27.32 44.3004 27.5 43.9004 27.5C43.5804 27.5 43.3204 27.39 43.1204 27.17C42.9204 26.93 42.8204 26.64 42.8204 26.3C42.8204 25.9 42.9604 25.53 43.2404 25.19L43.6304 24.71C44.7304 23.35 45.5604 22.23 46.1204 21.35C46.4604 20.77 46.8604 20 47.3204 19.04C47.7804 18.06 48.2304 17.05 48.6704 16.01C49.0504 15.13 49.8404 14.69 51.0404 14.69C51.6004 14.69 51.9904 14.74 52.2104 14.84C52.4304 14.94 52.5404 15.1 52.5404 15.32C52.5404 15.44 52.5004 15.63 52.4204 15.89C52.3404 16.15 52.2304 16.41 52.0904 16.67C51.7304 17.39 51.5504 18 51.5504 18.5C51.5504 18.8 51.6504 19.13 51.8504 19.49C52.0704 19.85 52.4004 20.3 52.8404 20.84C53.4804 21.68 53.9604 22.4 54.2804 23C54.6204 23.58 54.7904 24.22 54.7904 24.92C54.7904 25.12 54.7704 25.4 54.7304 25.76C55.7104 25.38 56.8604 24.37 58.1804 22.73C58.4204 22.45 58.6904 22.31 58.9904 22.31C59.2504 22.31 59.4504 22.43 59.5904 22.67C59.7504 22.91 59.8304 23.24 59.8304 23.66C59.8304 24.42 59.6404 25.04 59.2604 25.52C58.2604 26.76 57.3004 27.61 56.3804 28.07C55.4804 28.51 54.3604 28.75 53.0204 28.79C52.2204 29.47 51.2704 29.81 50.1704 29.81ZM62.9731 29.81C61.9331 29.81 61.1331 29.57 60.5731 29.09C60.0331 28.61 59.7631 28.07 59.7631 27.47C59.7631 26.95 59.9531 26.5 60.3331 26.12C60.7131 25.74 61.2731 25.55 62.0131 25.55C62.2731 25.55 62.5731 25.58 62.9131 25.64C63.2731 25.68 63.5431 25.71 63.7231 25.73C63.7031 25.21 63.5831 24.72 63.3631 24.26C63.1631 23.8 62.9031 23.36 62.5831 22.94C62.2631 22.5 61.9631 22.12 61.6831 21.8C61.0631 22.98 60.4431 23.96 59.8231 24.74C59.2231 25.52 58.5631 26.26 57.8431 26.96C57.4831 27.32 57.1031 27.5 56.7031 27.5C56.3831 27.5 56.1231 27.39 55.9231 27.17C55.7231 26.93 55.6231 26.64 55.6231 26.3C55.6231 25.9 55.7631 25.53 56.0431 25.19L56.4331 24.71C57.5331 23.35 58.3631 22.23 58.9231 21.35C59.2631 20.77 59.6631 20 60.1231 19.04C60.5831 18.06 61.0331 17.05 61.4731 16.01C61.8531 15.13 62.6431 14.69 63.8431 14.69C64.4031 14.69 64.7931 14.74 65.0131 14.84C65.2331 14.94 65.3431 15.1 65.3431 15.32C65.3431 15.44 65.3031 15.63 65.2231 15.89C65.1431 16.15 65.0331 16.41 64.8931 16.67C64.5331 17.39 64.3531 18 64.3531 18.5C64.3531 18.8 64.4531 19.13 64.6531 19.49C64.8731 19.85 65.2031 20.3 65.6431 20.84C66.2831 21.68 66.7631 22.4 67.0831 23C67.4231 23.58 67.5931 24.22 67.5931 24.92C67.5931 25.12 67.5731 25.4 67.5331 25.76C68.5131 25.38 69.6631 24.37 70.9831 22.73C71.2231 22.45 71.4931 22.31 71.7931 22.31C72.0531 22.31 72.2531 22.43 72.3931 22.67C72.5531 22.91 72.6331 23.24 72.6331 23.66C72.6331 24.42 72.4431 25.04 72.0631 25.52C71.0631 26.76 70.1031 27.61 69.1831 28.07C68.2831 28.51 67.1631 28.75 65.8231 28.79C65.0231 29.47 64.0731 29.81 62.9731 29.81ZM94.7959 9.8C94.7959 11.5 94.1959 12.97 92.9959 14.21C91.7959 15.43 90.0459 16.31 87.7459 16.85C88.9859 17.19 89.9259 17.75 90.5659 18.53C91.2059 19.29 91.5259 20.17 91.5259 21.17C91.5259 22.75 91.0259 24.12 90.0259 25.28C89.0459 26.44 87.6059 27.34 85.7059 27.98C83.8059 28.6 81.5159 28.91 78.8359 28.91C77.8359 28.91 77.0359 28.88 76.4359 28.82C76.4159 29.38 76.1759 29.8 75.7159 30.08C75.2559 30.36 74.6659 30.5 73.9459 30.5C73.2259 30.5 72.7259 30.34 72.4459 30.02C72.1859 29.7 72.0759 29.23 72.1159 28.61C72.2959 25.81 72.6459 22.88 73.1659 19.82C73.6859 16.74 74.3459 13.77 75.1459 10.91C75.2859 10.41 75.5659 10.06 75.9859 9.86C76.4059 9.66 76.9559 9.56 77.6359 9.56C78.8559 9.56 79.4659 9.9 79.4659 10.58C79.4659 10.86 79.4059 11.18 79.2859 11.54C78.7659 13.1 78.2459 15.22 77.7259 17.9C77.2059 20.56 76.8359 23.1 76.6159 25.52C77.5759 25.6 78.3559 25.64 78.9559 25.64C81.7559 25.64 83.8059 25.24 85.1059 24.44C86.4259 23.62 87.0859 22.58 87.0859 21.32C87.0859 20.44 86.7059 19.7 85.9459 19.1C85.2059 18.5 83.9559 18.17 82.1959 18.11C81.7959 18.09 81.5159 17.99 81.3559 17.81C81.1959 17.63 81.1159 17.34 81.1159 16.94C81.1159 16.36 81.2359 15.89 81.4759 15.53C81.7159 15.17 82.1559 14.98 82.7959 14.96C84.2159 14.92 85.4959 14.71 86.6359 14.33C87.7959 13.95 88.7059 13.42 89.3659 12.74C90.0259 12.04 90.3559 11.23 90.3559 10.31C90.3559 9.15 89.7859 8.24 88.6459 7.58C87.5059 6.9 85.7559 6.56 83.3959 6.56C81.2559 6.56 79.1859 6.84 77.1859 7.4C75.1859 7.94 73.4859 8.63 72.0859 9.47C71.4459 9.85 70.9059 10.04 70.4659 10.04C70.1059 10.04 69.8259 9.92 69.6259 9.68C69.4459 9.42 69.3559 9.1 69.3559 8.72C69.3559 8.22 69.4559 7.79 69.6559 7.43C69.8759 7.07 70.3859 6.66 71.1859 6.2C72.8659 5.24 74.8359 4.49 77.0959 3.95C79.3559 3.41 81.6659 3.14 84.0259 3.14C87.6459 3.14 90.3459 3.75 92.1259 4.97C93.9059 6.19 94.7959 7.8 94.7959 9.8ZM109.256 19.79C109.516 19.79 109.716 19.92 109.856 20.18C109.996 20.44 110.066 20.77 110.066 21.17C110.066 22.13 109.776 22.7 109.196 22.88C107.996 23.3 106.676 23.54 105.236 23.6C104.856 25.28 104.106 26.63 102.986 27.65C101.866 28.65 100.596 29.15 99.1756 29.15C97.9756 29.15 96.9456 28.86 96.0856 28.28C95.2456 27.7 94.6056 26.93 94.1656 25.97C93.7256 25.01 93.5056 23.97 93.5056 22.85C93.5056 21.33 93.7956 19.98 94.3756 18.8C94.9556 17.6 95.7556 16.67 96.7756 16.01C97.7956 15.33 98.9256 14.99 100.166 14.99C101.686 14.99 102.906 15.52 103.826 16.58C104.766 17.62 105.316 18.91 105.476 20.45C106.416 20.39 107.536 20.19 108.836 19.85C108.996 19.81 109.136 19.79 109.256 19.79ZM99.4156 25.97C100.056 25.97 100.606 25.71 101.066 25.19C101.546 24.67 101.866 23.92 102.026 22.94C101.406 22.52 100.926 21.97 100.586 21.29C100.266 20.61 100.106 19.89 100.106 19.13C100.106 18.81 100.136 18.49 100.196 18.17H100.046C99.2456 18.17 98.5756 18.56 98.0356 19.34C97.5156 20.1 97.2556 21.18 97.2556 22.58C97.2556 23.68 97.4656 24.52 97.8856 25.1C98.3256 25.68 98.8356 25.97 99.4156 25.97ZM111.181 29.15C109.941 29.15 108.951 28.7 108.211 27.8C107.471 26.9 107.101 25.72 107.101 24.26C107.101 22.66 107.471 21.15 108.211 19.73C108.951 18.29 109.931 17.14 111.151 16.28C112.391 15.4 113.701 14.96 115.081 14.96C115.521 14.96 115.811 15.05 115.951 15.23C116.111 15.39 116.241 15.69 116.341 16.13C116.761 16.05 117.201 16.01 117.661 16.01C118.641 16.01 119.131 16.36 119.131 17.06C119.131 17.48 118.981 18.48 118.681 20.06C118.221 22.36 117.991 23.96 117.991 24.86C117.991 25.16 118.061 25.4 118.201 25.58C118.361 25.76 118.561 25.85 118.801 25.85C119.181 25.85 119.641 25.61 120.181 25.13C120.721 24.63 121.451 23.83 122.371 22.73C122.611 22.45 122.881 22.31 123.181 22.31C123.441 22.31 123.641 22.43 123.781 22.67C123.941 22.91 124.021 23.24 124.021 23.66C124.021 24.46 123.831 25.08 123.451 25.52C122.631 26.54 121.761 27.4 120.841 28.1C119.921 28.8 119.031 29.15 118.171 29.15C117.511 29.15 116.901 28.93 116.341 28.49C115.801 28.03 115.391 27.41 115.111 26.63C114.071 28.31 112.761 29.15 111.181 29.15ZM112.261 26.12C112.701 26.12 113.121 25.86 113.521 25.34C113.921 24.82 114.211 24.13 114.391 23.27L115.501 17.75C114.661 17.77 113.881 18.09 113.161 18.71C112.461 19.31 111.901 20.11 111.481 21.11C111.061 22.11 110.851 23.17 110.851 24.29C110.851 24.91 110.971 25.37 111.211 25.67C111.471 25.97 111.821 26.12 112.261 26.12ZM123.713 29.15C122.953 29.15 122.413 28.75 122.093 27.95C121.793 27.15 121.643 25.87 121.643 24.11C121.643 21.51 122.013 19.04 122.753 16.7C122.933 16.12 123.223 15.7 123.623 15.44C124.043 15.16 124.623 15.02 125.363 15.02C125.763 15.02 126.043 15.07 126.203 15.17C126.363 15.27 126.443 15.46 126.443 15.74C126.443 16.06 126.293 16.78 125.993 17.9C125.793 18.7 125.633 19.4 125.513 20C125.393 20.6 125.293 21.34 125.213 22.22C125.873 20.5 126.613 19.1 127.433 18.02C128.253 16.94 129.053 16.17 129.833 15.71C130.633 15.25 131.363 15.02 132.023 15.02C133.323 15.02 133.973 15.67 133.973 16.97C133.973 17.23 133.883 17.86 133.703 18.86C133.543 19.66 133.463 20.16 133.463 20.36C133.463 21.06 133.713 21.41 134.213 21.41C134.773 21.41 135.493 20.97 136.373 20.09C136.633 19.83 136.903 19.7 137.183 19.7C137.443 19.7 137.643 19.82 137.783 20.06C137.943 20.28 138.023 20.58 138.023 20.96C138.023 21.7 137.823 22.28 137.423 22.7C136.863 23.28 136.203 23.78 135.443 24.2C134.703 24.6 133.913 24.8 133.073 24.8C132.013 24.8 131.203 24.53 130.643 23.99C130.103 23.45 129.833 22.72 129.833 21.8C129.833 21.5 129.863 21.2 129.923 20.9C129.963 20.5 129.983 20.23 129.983 20.09C129.983 19.77 129.873 19.61 129.653 19.61C129.353 19.61 128.953 19.95 128.453 20.63C127.973 21.29 127.493 22.17 127.013 23.27C126.533 24.37 126.143 25.53 125.843 26.75C125.623 27.69 125.363 28.33 125.063 28.67C124.783 28.99 124.333 29.15 123.713 29.15ZM146.155 22.31C146.375 23.95 146.695 25.57 147.115 27.17C147.195 27.43 147.235 27.7 147.235 27.98C147.235 28.88 146.685 29.33 145.585 29.33C144.965 29.33 144.485 29.16 144.145 28.82C143.825 28.48 143.525 27.84 143.245 26.9L143.215 26.78C142.455 27.72 141.765 28.35 141.145 28.67C140.545 28.99 139.845 29.15 139.045 29.15C137.825 29.15 136.815 28.7 136.015 27.8C135.235 26.88 134.845 25.69 134.845 24.23C134.845 22.63 135.185 21.15 135.865 19.79C136.545 18.43 137.475 17.32 138.655 16.46C139.835 15.58 141.155 15.05 142.615 14.87C142.995 11.09 143.715 7.8 144.775 5C145.855 2.2 147.285 0.799998 149.065 0.799998C149.925 0.799998 150.635 1.19 151.195 1.97C151.775 2.75 152.065 3.93 152.065 5.51C152.065 7.71 151.525 10.28 150.445 13.22C149.365 16.16 147.935 19.19 146.155 22.31ZM148.735 3.74C148.155 3.74 147.605 5.22 147.085 8.18C146.585 11.14 146.245 14.36 146.065 17.84C148.285 13.04 149.395 9.14 149.395 6.14C149.395 5.38 149.325 4.79 149.185 4.37C149.065 3.95 148.915 3.74 148.735 3.74ZM140.095 26.12C140.495 26.12 140.875 25.97 141.235 25.67C141.615 25.37 142.095 24.79 142.675 23.93C142.475 22.47 142.375 20.96 142.375 19.4C142.375 18.78 142.385 18.3 142.405 17.96C141.305 18.28 140.395 19.01 139.675 20.15C138.955 21.29 138.595 22.55 138.595 23.93C138.595 25.39 139.095 26.12 140.095 26.12Z" fill="white"/>
</svg>
